<?xml version="1.0" encoding="UTF-8" standalone="no"?>
<!DOCTYPE svg PUBLIC "-//W3C//DTD SVG 1.1//EN" "http://www.w3.org/Graphics/SVG/1.1/DTD/svg11.dtd"
[
<!ATTLIST g
  xmlns:vectornator CDATA #FIXED "http://vectornator.io"
  vectornator:layerName CDATA #IMPLIED >
<!ATTLIST g
  xmlns:vectornator CDATA #FIXED "http://vectornator.io"
  vectornator:mask CDATA #IMPLIED >
<!ATTLIST text
  xmlns:vectornator CDATA #FIXED "http://vectornator.io"
  vectornator:width CDATA #IMPLIED >

<!ATTLIST path
  xmlns:vectornator CDATA #FIXED "http://vectornator.io"
  vectornator:blendMode CDATA #IMPLIED >
<!ATTLIST path
  xmlns:vectornator CDATA #FIXED "http://vectornator.io"
  vectornator:shadowColor CDATA #IMPLIED >
<!ATTLIST path
  xmlns:vectornator CDATA #FIXED "http://vectornator.io"
  vectornator:shadowOpacity CDATA #IMPLIED >
<!ATTLIST path
  xmlns:vectornator CDATA #FIXED "http://vectornator.io"
  vectornator:shadowRadius CDATA #IMPLIED >
<!ATTLIST path
  xmlns:vectornator CDATA #FIXED "http://vectornator.io"
  vectornator:shadowOffset CDATA #IMPLIED >
<!ATTLIST path
  xmlns:vectornator CDATA #FIXED "http://vectornator.io"
  vectornator:shadowAngle CDATA #IMPLIED >

<!ATTLIST image
  xmlns:vectornator CDATA #FIXED "http://vectornator.io"
  vectornator:blendMode CDATA #IMPLIED >
<!ATTLIST image
  xmlns:vectornator CDATA #FIXED "http://vectornator.io"
  vectornator:shadowColor CDATA #IMPLIED >
<!ATTLIST image
  xmlns:vectornator CDATA #FIXED "http://vectornator.io"
  vectornator:shadowOpacity CDATA #IMPLIED >
<!ATTLIST image
  xmlns:vectornator CDATA #FIXED "http://vectornator.io"
  vectornator:shadowRadius CDATA #IMPLIED >
<!ATTLIST image
  xmlns:vectornator CDATA #FIXED "http://vectornator.io"
  vectornator:shadowOffset CDATA #IMPLIED >
<!ATTLIST image
  xmlns:vectornator CDATA #FIXED "http://vectornator.io"
  vectornator:shadowAngle CDATA #IMPLIED >

<!ATTLIST g
  xmlns:vectornator CDATA #FIXED "http://vectornator.io"
  vectornator:blendMode CDATA #IMPLIED >
<!ATTLIST g
  xmlns:vectornator CDATA #FIXED "http://vectornator.io"
  vectornator:shadowColor CDATA #IMPLIED >
<!ATTLIST g
  xmlns:vectornator CDATA #FIXED "http://vectornator.io"
  vectornator:shadowOpacity CDATA #IMPLIED >
<!ATTLIST g
  xmlns:vectornator CDATA #FIXED "http://vectornator.io"
  vectornator:shadowRadius CDATA #IMPLIED >
<!ATTLIST g
  xmlns:vectornator CDATA #FIXED "http://vectornator.io"
  vectornator:shadowOffset CDATA #IMPLIED >
<!ATTLIST g
  xmlns:vectornator CDATA #FIXED "http://vectornator.io"
  vectornator:shadowAngle CDATA #IMPLIED >

<!ENTITY % SVG.filter.extra.content  "| feDropShadow" >
<!ELEMENT feDropShadow EMPTY>
<!ATTLIST feDropShadow
  xmlns:svg CDATA #FIXED "http://www.w3.org/Graphics/SVG/1.1/DTD/svg11.dtd"
  dx CDATA #IMPLIED>
<!ATTLIST feDropShadow
  xmlns:svg CDATA #FIXED "http://www.w3.org/Graphics/SVG/1.1/DTD/svg11.dtd"
  dy CDATA #IMPLIED>
<!ATTLIST feDropShadow
  xmlns:svg CDATA #FIXED "http://www.w3.org/Graphics/SVG/1.1/DTD/svg11.dtd"
  stdDeviation CDATA #IMPLIED>
<!ATTLIST feDropShadow
  xmlns:svg CDATA #FIXED "http://www.w3.org/Graphics/SVG/1.1/DTD/svg11.dtd"
  flood-opacity CDATA #IMPLIED>
<!ATTLIST feDropShadow
  xmlns:svg CDATA #FIXED "http://www.w3.org/Graphics/SVG/1.1/DTD/svg11.dtd"
  in CDATA #IMPLIED>
<!ATTLIST feDropShadow
  xmlns:svg CDATA #FIXED "http://www.w3.org/Graphics/SVG/1.1/DTD/svg11.dtd"
  result CDATA #IMPLIED>
<!ATTLIST feDropShadow
  xmlns:svg CDATA #FIXED "http://www.w3.org/Graphics/SVG/1.1/DTD/svg11.dtd"
  flood-color CDATA #IMPLIED>
]
>
<!-- Created with Vectornator (http://vectornator.io/) -->
<svg height="100%" stroke-miterlimit="10" style="fill-rule:nonzero;clip-rule:evenodd;stroke-linecap:round;stroke-linejoin:round;" version="1.1" viewBox="0 0 800 250" width="100%" xml:space="preserve" xmlns="http://www.w3.org/2000/svg" xmlns:vectornator="http://vectornator.io" xmlns:xlink="http://www.w3.org/1999/xlink">
<defs>
<filter color-interpolation-filters="sRGB" filterUnits="userSpaceOnUse" height="222.126" id="Filter" width="663.307" x="50.8923" y="27.1061">
<feDropShadow dx="-3.67321e-05" dy="10" flood-color="#000000" flood-opacity="0.333" in="SourceGraphic" result="Shadow" stdDeviation="5"/>
</filter>
</defs>
<g id="g975" vectornator:layerName="g975">
<g filter="url(#Filter)" vectornator:shadowAngle="1.5708" vectornator:shadowColor="#000000" vectornator:shadowOffset="10" vectornator:shadowOpacity="0.333" vectornator:shadowRadius="10">
<path d="M256.651 48.2241L286.171 48.2241L286.171 128.571L315.675 128.571" fill="#000000" fill-opacity="0" fill-rule="evenodd" opacity="1" stroke="none"/>
<path d="M256.651 48.2241L286.171 48.2241L286.171 128.571L303.675 128.571" fill="none" fill-rule="evenodd" opacity="1" stroke="#666666" stroke-linecap="butt" stroke-linejoin="round" stroke-width="2"/>
<path d="M303.675 131.874L312.751 128.571L303.675 125.267L303.675 131.874Z" fill="#666666" fill-rule="evenodd" opacity="1" stroke="#666666" stroke-linecap="butt" stroke-linejoin="miter" stroke-width="2"/>
<path d="M149.533 28.8383L256.651 28.8383L256.651 67.6099L149.533 67.6099L149.533 28.8383Z" fill="#ffffff" fill-rule="evenodd" opacity="1" stroke="none"/>
<path d="M149.533 28.8383L256.651 28.8383L256.651 67.6099L149.533 67.6099L149.533 28.8383Z" fill="none" fill-rule="evenodd" opacity="1" stroke="#980000" stroke-linecap="butt" stroke-linejoin="round" stroke-width="1"/>
<path d="M166.502 50.1045C166.502 50.667 166.398 51.1566 166.189 51.5733C165.991 51.9795 165.705 52.3181 165.33 52.5889C164.965 52.8493 164.528 53.0472 164.017 53.1826C163.507 53.3181 162.95 53.3858 162.346 53.3858C161.804 53.3858 161.283 53.3493 160.783 53.2764C160.283 53.2139 159.788 53.1097 159.299 52.9639L159.299 51.0733C159.538 51.1566 159.788 51.2347 160.049 51.3076C160.309 51.3806 160.57 51.4431 160.83 51.4951C161.101 51.5472 161.366 51.5889 161.627 51.6201C161.887 51.6514 162.137 51.667 162.377 51.667C162.741 51.667 163.049 51.6358 163.299 51.5733C163.559 51.5108 163.767 51.4274 163.924 51.3233C164.09 51.2087 164.21 51.0785 164.283 50.9326C164.356 50.7764 164.392 50.6097 164.392 50.4326C164.392 50.1826 164.319 49.9743 164.174 49.8076C164.038 49.6305 163.851 49.4795 163.611 49.3545C163.382 49.2191 163.116 49.0993 162.814 48.9951C162.512 48.891 162.205 48.7816 161.892 48.667C161.59 48.542 161.288 48.4066 160.986 48.2608C160.684 48.1045 160.413 47.917 160.174 47.6983C159.945 47.4691 159.757 47.2035 159.611 46.9014C159.476 46.5889 159.408 46.2139 159.408 45.7764C159.408 45.3701 159.481 44.9899 159.627 44.6358C159.773 44.2712 160.002 43.9587 160.314 43.6983C160.627 43.4274 161.028 43.2139 161.517 43.0576C162.007 42.891 162.596 42.8076 163.283 42.8076C163.491 42.8076 163.705 42.818 163.924 42.8389C164.142 42.8597 164.361 42.8858 164.58 42.917C164.799 42.9378 165.007 42.9691 165.205 43.0108C165.403 43.0524 165.585 43.0941 165.752 43.1358L165.752 44.8858C165.585 44.8233 165.403 44.766 165.205 44.7139C165.007 44.6618 164.804 44.6201 164.596 44.5889C164.387 44.5472 164.174 44.516 163.955 44.4951C163.747 44.4743 163.543 44.4639 163.346 44.4639C163.012 44.4639 162.726 44.4899 162.486 44.542C162.257 44.5941 162.064 44.6722 161.908 44.7764C161.762 44.8701 161.653 44.9899 161.58 45.1358C161.517 45.2712 161.486 45.4222 161.486 45.5889C161.486 45.8076 161.554 45.9951 161.689 46.1514C161.835 46.2972 162.028 46.4326 162.267 46.5576C162.507 46.6826 162.773 46.7972 163.064 46.9014C163.366 47.0056 163.674 47.1201 163.986 47.2451C164.309 47.3701 164.616 47.5108 164.908 47.667C165.21 47.8233 165.481 48.016 165.721 48.2451C165.96 48.4639 166.148 48.7243 166.283 49.0264C166.429 49.3285 166.502 49.6878 166.502 50.1045ZM174.971 53.1201C174.627 53.2035 174.278 53.266 173.924 53.3076C173.58 53.3597 173.252 53.3858 172.939 53.3858C172.418 53.3858 171.965 53.3285 171.58 53.2139C171.205 53.0993 170.892 52.9326 170.642 52.7139C170.403 52.4847 170.221 52.1983 170.096 51.8545C169.981 51.5108 169.924 51.0993 169.924 50.6201L169.924 46.7451L167.799 46.7451L167.799 45.2608L169.924 45.2608L169.924 43.2295L171.877 42.7139L171.877 45.2608L174.971 45.2608L174.971 46.7451L171.877 46.7451L171.877 50.4795C171.877 50.9274 171.981 51.2712 172.189 51.5108C172.398 51.7399 172.747 51.8545 173.236 51.8545C173.549 51.8545 173.851 51.8285 174.142 51.7764C174.444 51.7243 174.721 51.6618 174.971 51.5889L174.971 53.1201ZM182.33 48.3389C182.34 48.0472 182.325 47.7972 182.283 47.5889C182.241 47.3806 182.179 47.2087 182.096 47.0733C182.012 46.9378 181.908 46.8389 181.783 46.7764C181.658 46.7139 181.512 46.6826 181.346 46.6826C181.064 46.6826 180.773 46.7972 180.471 47.0264C180.179 47.2556 179.851 47.6358 179.486 48.167L179.486 53.1983L177.533 53.1983L177.533 45.2608L179.267 45.2608L179.33 46.417C179.465 46.2087 179.611 46.0264 179.767 45.8701C179.934 45.7035 180.116 45.5628 180.314 45.4483C180.523 45.3337 180.747 45.2451 180.986 45.1826C181.236 45.1201 181.507 45.0889 181.799 45.0889C182.194 45.0889 182.549 45.1566 182.861 45.292C183.174 45.4274 183.434 45.6306 183.642 45.9014C183.851 46.1722 184.007 46.516 184.111 46.9326C184.215 47.3389 184.257 47.8076 184.236 48.3389L182.33 48.3389ZM192.924 48.6201C192.924 48.7451 192.918 48.9118 192.908 49.1201C192.908 49.3285 192.898 49.5264 192.877 49.7139L187.658 49.7139C187.658 50.0576 187.71 50.3649 187.814 50.6358C187.929 50.8962 188.08 51.1201 188.267 51.3076C188.465 51.4847 188.7 51.6201 188.971 51.7139C189.252 51.8076 189.559 51.8545 189.892 51.8545C190.278 51.8545 190.689 51.8233 191.127 51.7608C191.564 51.6983 192.023 51.5993 192.502 51.4639L192.502 52.9795C192.294 53.042 192.07 53.0993 191.83 53.1514C191.59 53.1931 191.346 53.2295 191.096 53.2608C190.846 53.3024 190.59 53.3337 190.33 53.3545C190.08 53.3753 189.835 53.3858 189.596 53.3858C188.991 53.3858 188.45 53.2972 187.971 53.1201C187.491 52.9431 187.085 52.6878 186.752 52.3545C186.419 52.0212 186.163 51.6097 185.986 51.1201C185.809 50.6201 185.721 50.042 185.721 49.3858C185.721 48.7399 185.809 48.1566 185.986 47.6358C186.163 47.1045 186.413 46.6514 186.736 46.2764C187.059 45.891 187.45 45.5993 187.908 45.4014C188.377 45.1931 188.892 45.0889 189.455 45.0889C190.017 45.0889 190.512 45.1774 190.939 45.3545C191.377 45.5212 191.741 45.7608 192.033 46.0733C192.325 46.3858 192.544 46.7608 192.689 47.1983C192.846 47.6253 192.924 48.0993 192.924 48.6201ZM190.986 48.3389C190.997 48.0264 190.96 47.7556 190.877 47.5264C190.793 47.2972 190.679 47.1097 190.533 46.9639C190.387 46.8076 190.221 46.6931 190.033 46.6201C189.846 46.5472 189.642 46.5108 189.424 46.5108C188.944 46.5108 188.549 46.6722 188.236 46.9951C187.934 47.3076 187.752 47.7556 187.689 48.3389L190.986 48.3389ZM199.783 53.1983L199.736 52.1514C199.569 52.3285 199.392 52.4951 199.205 52.6514C199.028 52.7972 198.83 52.9274 198.611 53.042C198.392 53.1462 198.153 53.2295 197.892 53.292C197.642 53.3545 197.361 53.3858 197.049 53.3858C196.642 53.3858 196.283 53.3233 195.971 53.1983C195.668 53.0733 195.413 52.9066 195.205 52.6983C194.997 52.4795 194.84 52.2191 194.736 51.917C194.632 51.6149 194.58 51.2816 194.58 50.917C194.58 50.542 194.658 50.1983 194.814 49.8858C194.971 49.5628 195.21 49.2868 195.533 49.0576C195.866 48.8285 196.273 48.6514 196.752 48.5264C197.241 48.391 197.814 48.3233 198.471 48.3233L199.517 48.3233L199.517 47.8545C199.517 47.6462 199.486 47.4639 199.424 47.3076C199.372 47.141 199.278 47.0003 199.142 46.8858C199.017 46.7712 198.851 46.6826 198.642 46.6201C198.445 46.5576 198.2 46.5264 197.908 46.5264C197.439 46.5264 196.976 46.5785 196.517 46.6826C196.059 46.7868 195.616 46.9378 195.189 47.1358L195.189 45.6045C195.575 45.4587 196.012 45.3389 196.502 45.2451C197.002 45.141 197.523 45.0889 198.064 45.0889C198.648 45.0889 199.148 45.1462 199.564 45.2608C199.991 45.3649 200.34 45.5316 200.611 45.7608C200.892 45.9795 201.096 46.2608 201.221 46.6045C201.356 46.9378 201.424 47.3285 201.424 47.7764L201.424 53.1983L199.783 53.1983ZM199.517 49.6826L198.346 49.6826C198.023 49.6826 197.747 49.7139 197.517 49.7764C197.299 49.8389 197.116 49.9274 196.971 50.042C196.835 50.1462 196.736 50.2712 196.674 50.417C196.611 50.5628 196.58 50.7139 196.58 50.8701C196.58 51.1931 196.684 51.4431 196.892 51.6201C197.101 51.7868 197.382 51.8701 197.736 51.8701C198.007 51.8701 198.283 51.7764 198.564 51.5889C198.856 51.391 199.174 51.1097 199.517 50.7451L199.517 49.6826ZM209.205 53.1983L209.205 47.792C209.205 47.5941 209.2 47.4222 209.189 47.2764C209.179 47.1201 209.158 46.9951 209.127 46.9014C209.096 46.7972 209.049 46.7243 208.986 46.6826C208.934 46.6305 208.856 46.6045 208.752 46.6045C208.585 46.6045 208.424 46.7139 208.267 46.9326C208.111 47.1514 207.934 47.5212 207.736 48.042L207.736 53.1983L206.111 53.1983L206.111 47.792C206.111 47.5941 206.106 47.4222 206.096 47.2764C206.085 47.1201 206.064 46.9951 206.033 46.9014C206.002 46.7972 205.955 46.7243 205.892 46.6826C205.83 46.6305 205.747 46.6045 205.642 46.6045C205.507 46.6045 205.356 46.7139 205.189 46.9326C205.023 47.1514 204.835 47.5212 204.627 48.042L204.627 53.1983L202.986 53.1983L202.986 45.2608L204.392 45.2608L204.424 46.417C204.538 46.1774 204.653 45.9743 204.767 45.8076C204.882 45.641 205.002 45.5055 205.127 45.4014C205.262 45.2972 205.403 45.2243 205.549 45.1826C205.705 45.1305 205.877 45.1045 206.064 45.1045C206.502 45.1045 206.835 45.2191 207.064 45.4482C207.304 45.6774 207.439 46.0003 207.471 46.417C207.596 46.1774 207.715 45.9743 207.83 45.8076C207.955 45.641 208.085 45.5055 208.221 45.4014C208.356 45.2972 208.497 45.2243 208.642 45.1826C208.799 45.1305 208.971 45.1045 209.158 45.1045C209.741 45.1045 210.168 45.3076 210.439 45.7139C210.721 46.1097 210.861 46.7034 210.861 47.4951L210.861 53.1982L209.205 53.1983Z" fill="#666666" fill-rule="evenodd" opacity="1" stroke="none"/>
<path d="M458.745 128.564L483.249 128.564L483.249 48.0911L507.753 48.0911" fill="#000000" fill-opacity="0" fill-rule="evenodd" opacity="1" stroke="none"/>
<path d="M458.745 128.564L483.249 128.564L483.249 48.0911L495.753 48.0911" fill="none" fill-rule="evenodd" opacity="1" stroke="#666666" stroke-linecap="butt" stroke-linejoin="round" stroke-width="2"/>
<path d="M495.753 51.3946L504.829 48.0911L495.753 44.7877L495.753 51.3946Z" fill="#666666" fill-rule="evenodd" opacity="1" stroke="#666666" stroke-linecap="butt" stroke-linejoin="miter" stroke-width="2"/>
<path d="M315.69 128.564L333.619 92.7053L440.816 92.7053L458.745 128.564L440.816 164.422L333.619 164.422L315.69 128.564Z" fill="#ffffff" fill-rule="evenodd" opacity="1" stroke="none"/>
<path d="M315.69 128.564L333.619 92.7053L440.816 92.7053L458.745 128.564L440.816 164.422L333.619 164.422L315.69 128.564Z" fill="none" fill-rule="evenodd" opacity="1" stroke="#4a86e8" stroke-linecap="butt" stroke-linejoin="round" stroke-width="2"/>
<path d="M355.772 127.455C355.772 127.986 355.684 128.481 355.507 128.939C355.33 129.387 355.064 129.778 354.71 130.111C354.366 130.434 353.934 130.689 353.413 130.877C352.892 131.054 352.288 131.142 351.601 131.142L350.632 131.142L350.632 134.424L348.694 134.424L348.694 124.205L351.679 124.205C352.345 124.205 352.929 124.278 353.429 124.424C353.939 124.569 354.366 124.783 354.71 125.064C355.064 125.335 355.33 125.674 355.507 126.08C355.684 126.476 355.772 126.934 355.772 127.455ZM353.757 127.595C353.757 127.325 353.715 127.08 353.632 126.861C353.549 126.632 353.418 126.439 353.241 126.283C353.064 126.127 352.84 126.007 352.569 125.924C352.309 125.84 351.996 125.799 351.632 125.799L350.632 125.799L350.632 129.549L351.694 129.549C352.028 129.549 352.319 129.502 352.569 129.408C352.83 129.314 353.049 129.184 353.226 129.017C353.403 128.84 353.533 128.632 353.616 128.392C353.71 128.153 353.757 127.887 353.757 127.595ZM362.632 129.564C362.642 129.273 362.627 129.023 362.585 128.814C362.543 128.606 362.481 128.434 362.397 128.299C362.314 128.163 362.21 128.064 362.085 128.002C361.96 127.939 361.814 127.908 361.647 127.908C361.366 127.908 361.075 128.023 360.772 128.252C360.481 128.481 360.153 128.861 359.788 129.392L359.788 134.424L357.835 134.424L357.835 126.486L359.569 126.486L359.632 127.642C359.767 127.434 359.913 127.252 360.069 127.096C360.236 126.929 360.418 126.788 360.616 126.674C360.825 126.559 361.049 126.471 361.288 126.408C361.538 126.346 361.809 126.314 362.101 126.314C362.496 126.314 362.851 126.382 363.163 126.517C363.476 126.653 363.736 126.856 363.944 127.127C364.153 127.398 364.309 127.741 364.413 128.158C364.517 128.564 364.559 129.033 364.538 129.564L362.632 129.564ZM373.46 130.392C373.46 131.017 373.371 131.59 373.194 132.111C373.017 132.622 372.762 133.064 372.429 133.439C372.095 133.804 371.684 134.09 371.194 134.299C370.715 134.507 370.168 134.611 369.554 134.611C368.96 134.611 368.429 134.523 367.96 134.345C367.502 134.168 367.111 133.913 366.788 133.58C366.465 133.236 366.215 132.809 366.038 132.299C365.871 131.778 365.788 131.179 365.788 130.502C365.788 129.866 365.877 129.293 366.054 128.783C366.241 128.262 366.502 127.819 366.835 127.455C367.168 127.09 367.575 126.809 368.054 126.611C368.543 126.413 369.095 126.314 369.71 126.314C370.304 126.314 370.83 126.403 371.288 126.58C371.757 126.747 372.153 127.002 372.476 127.345C372.799 127.689 373.043 128.116 373.21 128.627C373.377 129.137 373.46 129.726 373.46 130.392ZM371.476 130.439C371.476 129.616 371.319 128.997 371.007 128.58C370.705 128.163 370.252 127.955 369.647 127.955C369.314 127.955 369.028 128.023 368.788 128.158C368.559 128.283 368.366 128.46 368.21 128.689C368.064 128.918 367.955 129.184 367.882 129.486C367.809 129.788 367.772 130.111 367.772 130.455C367.772 131.278 367.939 131.903 368.272 132.33C368.606 132.747 369.064 132.955 369.647 132.955C369.96 132.955 370.231 132.892 370.46 132.767C370.7 132.632 370.892 132.455 371.038 132.236C371.184 132.007 371.293 131.741 371.366 131.439C371.439 131.127 371.476 130.793 371.476 130.439ZM381.538 134.111C381.163 134.267 380.772 134.382 380.366 134.455C379.97 134.528 379.554 134.564 379.116 134.564C378.481 134.564 377.913 134.481 377.413 134.314C376.913 134.137 376.486 133.882 376.132 133.549C375.788 133.205 375.522 132.783 375.335 132.283C375.158 131.783 375.069 131.205 375.069 130.549C375.069 129.913 375.168 129.34 375.366 128.83C375.564 128.309 375.845 127.866 376.21 127.502C376.575 127.137 377.012 126.856 377.522 126.658C378.043 126.46 378.616 126.361 379.241 126.361C379.762 126.361 380.194 126.387 380.538 126.439C380.892 126.491 381.21 126.559 381.491 126.642L381.491 128.502C381.168 128.335 380.819 128.21 380.444 128.127C380.069 128.033 379.71 127.986 379.366 127.986C379.012 127.986 378.694 128.049 378.413 128.174C378.132 128.288 377.892 128.455 377.694 128.674C377.507 128.882 377.361 129.142 377.257 129.455C377.163 129.757 377.116 130.09 377.116 130.455C377.116 130.83 377.168 131.168 377.272 131.47C377.387 131.773 377.543 132.033 377.741 132.252C377.939 132.46 378.179 132.622 378.46 132.736C378.741 132.84 379.054 132.892 379.397 132.892C379.564 132.892 379.741 132.882 379.929 132.861C380.116 132.84 380.299 132.809 380.476 132.767C380.663 132.715 380.845 132.663 381.022 132.611C381.21 132.549 381.382 132.486 381.538 132.424L381.538 134.111ZM390.819 129.845C390.819 129.97 390.814 130.137 390.804 130.345C390.804 130.554 390.793 130.752 390.773 130.939L385.554 130.939C385.554 131.283 385.606 131.59 385.71 131.861C385.825 132.122 385.976 132.345 386.163 132.533C386.361 132.71 386.595 132.845 386.866 132.939C387.148 133.033 387.455 133.08 387.788 133.08C388.174 133.08 388.585 133.049 389.023 132.986C389.46 132.924 389.918 132.825 390.398 132.689L390.398 134.205C390.189 134.267 389.965 134.325 389.726 134.377C389.486 134.418 389.241 134.455 388.991 134.486C388.741 134.528 388.486 134.559 388.226 134.58C387.976 134.601 387.731 134.611 387.491 134.611C386.887 134.611 386.345 134.523 385.866 134.345C385.387 134.168 384.981 133.913 384.648 133.58C384.314 133.246 384.059 132.835 383.882 132.345C383.705 131.845 383.616 131.267 383.616 130.611C383.616 129.965 383.705 129.382 383.882 128.861C384.059 128.33 384.309 127.877 384.632 127.502C384.955 127.116 385.345 126.825 385.804 126.627C386.273 126.418 386.788 126.314 387.351 126.314C387.913 126.314 388.408 126.403 388.835 126.58C389.273 126.746 389.637 126.986 389.929 127.299C390.22 127.611 390.439 127.986 390.585 128.424C390.741 128.851 390.819 129.325 390.819 129.845ZM388.882 129.564C388.892 129.252 388.856 128.981 388.772 128.752C388.689 128.523 388.575 128.335 388.429 128.189C388.283 128.033 388.116 127.918 387.929 127.845C387.741 127.773 387.538 127.736 387.319 127.736C386.84 127.736 386.444 127.898 386.132 128.22C385.83 128.533 385.647 128.981 385.585 129.564L388.882 129.564ZM399.257 132.08C399.257 132.538 399.153 132.929 398.944 133.252C398.746 133.564 398.481 133.825 398.147 134.033C397.825 134.231 397.45 134.377 397.022 134.47C396.606 134.564 396.179 134.611 395.741 134.611C395.158 134.611 394.632 134.58 394.163 134.517C393.694 134.465 393.252 134.387 392.835 134.283L392.835 132.564C393.325 132.762 393.814 132.908 394.304 133.002C394.793 133.096 395.252 133.142 395.679 133.142C396.179 133.142 396.554 133.064 396.804 132.908C397.054 132.741 397.179 132.533 397.179 132.283C397.179 132.158 397.153 132.049 397.101 131.955C397.049 131.851 396.95 131.757 396.804 131.674C396.658 131.58 396.455 131.486 396.194 131.392C395.934 131.288 395.595 131.179 395.179 131.064C394.783 130.95 394.439 130.825 394.148 130.689C393.856 130.554 393.611 130.392 393.413 130.205C393.226 130.017 393.08 129.799 392.976 129.549C392.882 129.299 392.835 129.007 392.835 128.674C392.835 128.351 392.908 128.049 393.054 127.767C393.2 127.476 393.418 127.226 393.71 127.017C394.002 126.799 394.361 126.627 394.788 126.502C395.226 126.377 395.731 126.314 396.304 126.314C396.804 126.314 397.246 126.34 397.632 126.392C398.017 126.444 398.361 126.502 398.663 126.564L398.663 128.111C398.205 127.965 397.778 127.866 397.382 127.814C396.986 127.752 396.59 127.721 396.194 127.721C395.809 127.721 395.496 127.793 395.257 127.939C395.017 128.075 394.898 128.267 394.898 128.517C394.898 128.632 394.918 128.736 394.96 128.83C395.012 128.924 395.106 129.017 395.241 129.111C395.387 129.195 395.58 129.288 395.819 129.392C396.069 129.486 396.398 129.59 396.804 129.705C397.262 129.83 397.648 129.971 397.96 130.127C398.273 130.273 398.523 130.439 398.71 130.627C398.908 130.814 399.049 131.028 399.132 131.267C399.215 131.507 399.257 131.778 399.257 132.08ZM408.054 132.08C408.054 132.538 407.95 132.929 407.741 133.252C407.543 133.564 407.278 133.825 406.944 134.033C406.621 134.231 406.246 134.377 405.819 134.47C405.403 134.564 404.976 134.611 404.538 134.611C403.955 134.611 403.429 134.58 402.96 134.517C402.491 134.465 402.049 134.387 401.632 134.283L401.632 132.564C402.121 132.762 402.611 132.908 403.101 133.002C403.59 133.096 404.049 133.142 404.476 133.142C404.976 133.142 405.351 133.064 405.601 132.908C405.851 132.741 405.976 132.533 405.976 132.283C405.976 132.158 405.95 132.049 405.898 131.955C405.845 131.851 405.746 131.757 405.601 131.674C405.455 131.58 405.252 131.486 404.991 131.392C404.731 131.288 404.392 131.179 403.976 131.064C403.58 130.95 403.236 130.825 402.944 130.689C402.653 130.554 402.408 130.392 402.21 130.205C402.023 130.017 401.877 129.799 401.773 129.549C401.679 129.299 401.632 129.007 401.632 128.674C401.632 128.351 401.705 128.049 401.851 127.767C401.996 127.476 402.215 127.226 402.507 127.017C402.799 126.799 403.158 126.627 403.585 126.502C404.023 126.377 404.528 126.314 405.101 126.314C405.601 126.314 406.043 126.34 406.429 126.392C406.814 126.444 407.158 126.502 407.46 126.564L407.46 128.111C407.002 127.965 406.575 127.866 406.179 127.814C405.783 127.752 405.387 127.721 404.991 127.721C404.606 127.721 404.293 127.793 404.054 127.939C403.814 128.075 403.694 128.267 403.694 128.517C403.694 128.632 403.715 128.736 403.757 128.83C403.809 128.924 403.903 129.017 404.038 129.111C404.184 129.195 404.377 129.288 404.616 129.392C404.866 129.486 405.194 129.59 405.601 129.705C406.059 129.83 406.444 129.971 406.757 130.127C407.069 130.273 407.319 130.439 407.507 130.627C407.705 130.814 407.845 131.028 407.929 131.267C408.012 131.507 408.054 131.778 408.054 132.08ZM417.444 130.392C417.444 131.017 417.356 131.59 417.179 132.111C417.002 132.622 416.746 133.064 416.413 133.439C416.08 133.804 415.668 134.09 415.179 134.299C414.7 134.507 414.153 134.611 413.538 134.611C412.944 134.611 412.413 134.523 411.944 134.345C411.486 134.168 411.095 133.913 410.772 133.58C410.45 133.236 410.2 132.809 410.022 132.299C409.856 131.778 409.772 131.179 409.772 130.502C409.772 129.866 409.861 129.293 410.038 128.783C410.226 128.262 410.486 127.819 410.819 127.455C411.153 127.09 411.559 126.809 412.038 126.611C412.528 126.413 413.08 126.314 413.694 126.314C414.288 126.314 414.814 126.403 415.272 126.58C415.741 126.747 416.137 127.002 416.46 127.345C416.783 127.689 417.028 128.116 417.194 128.627C417.361 129.137 417.444 129.726 417.444 130.392ZM415.46 130.439C415.46 129.616 415.304 128.997 414.991 128.58C414.689 128.163 414.236 127.955 413.632 127.955C413.299 127.955 413.012 128.023 412.772 128.158C412.543 128.283 412.351 128.46 412.194 128.689C412.049 128.918 411.939 129.184 411.866 129.486C411.793 129.788 411.757 130.111 411.757 130.455C411.757 131.278 411.924 131.903 412.257 132.33C412.59 132.747 413.049 132.955 413.632 132.955C413.944 132.955 414.215 132.892 414.444 132.767C414.684 132.632 414.877 132.455 415.022 132.236C415.168 132.007 415.278 131.741 415.351 131.439C415.424 131.127 415.46 130.793 415.46 130.439ZM424.21 129.564C424.22 129.273 424.205 129.023 424.163 128.814C424.121 128.606 424.059 128.434 423.976 128.299C423.892 128.163 423.788 128.064 423.663 128.002C423.538 127.939 423.392 127.908 423.226 127.908C422.944 127.908 422.653 128.023 422.351 128.252C422.059 128.481 421.731 128.861 421.366 129.392L421.366 134.424L419.413 134.424L419.413 126.486L421.147 126.486L421.21 127.642C421.345 127.434 421.491 127.252 421.647 127.096C421.814 126.929 421.996 126.788 422.194 126.674C422.403 126.559 422.627 126.471 422.866 126.408C423.116 126.346 423.387 126.314 423.679 126.314C424.075 126.314 424.429 126.382 424.741 126.517C425.054 126.653 425.314 126.856 425.522 127.127C425.731 127.398 425.887 127.741 425.991 128.158C426.095 128.564 426.137 129.033 426.116 129.564L424.21 129.564Z" fill="#666666" fill-rule="evenodd" opacity="1" stroke="none"/>
<path d="M507.754 28.7044L614.872 28.7044L614.872 67.4761L507.754 67.4761L507.754 28.7044Z" fill="#ffffff" fill-rule="evenodd" opacity="1" stroke="none"/>
<path d="M507.754 28.7044L614.872 28.7044L614.872 67.4761L507.754 67.4761L507.754 28.7044Z" fill="none" fill-rule="evenodd" opacity="1" stroke="#980000" stroke-linecap="butt" stroke-linejoin="round" stroke-width="1"/>
<path d="M524.722 49.9707C524.722 50.5332 524.618 51.0227 524.41 51.4394C524.212 51.8457 523.925 52.1842 523.55 52.455C523.186 52.7155 522.748 52.9134 522.238 53.0488C521.728 53.1842 521.17 53.2519 520.566 53.2519C520.024 53.2519 519.504 53.2155 519.004 53.1425C518.504 53.08 518.009 52.9759 517.519 52.83L517.519 50.9394C517.759 51.0227 518.009 51.1009 518.269 51.1738C518.53 51.2467 518.79 51.3092 519.05 51.3613C519.321 51.4134 519.587 51.455 519.847 51.4863C520.108 51.5175 520.358 51.5332 520.597 51.5332C520.962 51.5332 521.269 51.5019 521.519 51.4394C521.78 51.3769 521.988 51.2936 522.144 51.1894C522.311 51.0748 522.431 50.9446 522.504 50.7988C522.576 50.6425 522.613 50.4759 522.613 50.2988C522.613 50.0488 522.54 49.8404 522.394 49.6738C522.259 49.4967 522.071 49.3457 521.832 49.2207C521.603 49.0852 521.337 48.9654 521.035 48.8613C520.733 48.7571 520.425 48.6477 520.113 48.5332C519.811 48.4082 519.509 48.2727 519.207 48.1269C518.905 47.9707 518.634 47.7832 518.394 47.5644C518.165 47.3352 517.978 47.0696 517.832 46.7675C517.696 46.455 517.629 46.08 517.629 45.6425C517.629 45.2363 517.701 44.8561 517.847 44.5019C517.993 44.1373 518.222 43.8248 518.535 43.5644C518.847 43.2936 519.248 43.08 519.738 42.9238C520.228 42.7571 520.816 42.6738 521.504 42.6738C521.712 42.6738 521.925 42.6842 522.144 42.705C522.363 42.7259 522.582 42.7519 522.8 42.7832C523.019 42.804 523.228 42.8352 523.425 42.8769C523.623 42.9186 523.806 42.9602 523.972 43.0019L523.972 44.7519C523.806 44.6894 523.623 44.6321 523.425 44.58C523.228 44.5279 523.024 44.4863 522.816 44.455C522.608 44.4134 522.394 44.3821 522.175 44.3613C521.967 44.3405 521.764 44.33 521.566 44.33C521.233 44.33 520.946 44.3561 520.707 44.4082C520.478 44.4603 520.285 44.5384 520.129 44.6425C519.983 44.7363 519.873 44.8561 519.8 45.0019C519.738 45.1373 519.707 45.2884 519.707 45.455C519.707 45.6738 519.774 45.8613 519.91 46.0175C520.056 46.1634 520.248 46.2988 520.488 46.4238C520.728 46.5488 520.993 46.6634 521.285 46.7675C521.587 46.8717 521.894 46.9863 522.207 47.1113C522.53 47.2363 522.837 47.3769 523.129 47.5332C523.431 47.6894 523.702 47.8821 523.941 48.1113C524.181 48.33 524.368 48.5905 524.504 48.8925C524.649 49.1946 524.722 49.554 524.722 49.9707ZM533.191 52.9863C532.847 53.0696 532.498 53.1321 532.144 53.1738C531.8 53.2259 531.472 53.2519 531.16 53.2519C530.639 53.2519 530.186 53.1946 529.8 53.08C529.425 52.9655 529.113 52.7988 528.863 52.58C528.623 52.3509 528.441 52.0644 528.316 51.7207C528.201 51.3769 528.144 50.9655 528.144 50.4863L528.144 46.6113L526.019 46.6113L526.019 45.1269L528.144 45.1269L528.144 43.0957L530.097 42.58L530.097 45.1269L533.191 45.1269L533.191 46.6113L530.097 46.6113L530.097 50.3457C530.097 50.7936 530.201 51.1373 530.41 51.3769C530.618 51.6061 530.967 51.7207 531.457 51.7207C531.769 51.7207 532.071 51.6946 532.363 51.6425C532.665 51.5904 532.941 51.5279 533.191 51.455L533.191 52.9863ZM540.55 48.205C540.561 47.9134 540.545 47.6634 540.504 47.455C540.462 47.2467 540.399 47.0748 540.316 46.9394C540.233 46.804 540.129 46.705 540.004 46.6425C539.879 46.58 539.733 46.5488 539.566 46.5488C539.285 46.5488 538.993 46.6634 538.691 46.8925C538.399 47.1217 538.071 47.5019 537.707 48.0332L537.707 53.0644L535.754 53.0644L535.754 45.1269L537.488 45.1269L537.55 46.2832C537.686 46.0748 537.832 45.8925 537.988 45.7363C538.155 45.5696 538.337 45.429 538.535 45.3144C538.743 45.1998 538.967 45.1113 539.207 45.0488C539.457 44.9863 539.727 44.955 540.019 44.955C540.415 44.955 540.769 45.0227 541.082 45.1582C541.394 45.2936 541.655 45.4967 541.863 45.7675C542.071 46.0384 542.227 46.3821 542.332 46.7988C542.436 47.205 542.477 47.6738 542.457 48.205L540.55 48.205ZM551.144 48.4863C551.144 48.6113 551.139 48.778 551.129 48.9863C551.129 49.1946 551.118 49.3925 551.097 49.58L545.879 49.58C545.879 49.9238 545.931 50.2311 546.035 50.5019C546.149 50.7623 546.3 50.9863 546.488 51.1738C546.686 51.3509 546.92 51.4863 547.191 51.58C547.472 51.6738 547.78 51.7207 548.113 51.7207C548.498 51.7207 548.91 51.6894 549.347 51.6269C549.785 51.5644 550.243 51.4655 550.722 51.33L550.722 52.8457C550.514 52.9082 550.29 52.9655 550.05 53.0175C549.811 53.0592 549.566 53.0957 549.316 53.1269C549.066 53.1686 548.811 53.1998 548.55 53.2207C548.3 53.2415 548.056 53.2519 547.816 53.2519C547.212 53.2519 546.67 53.1634 546.191 52.9863C545.712 52.8092 545.306 52.554 544.972 52.2207C544.639 51.8873 544.384 51.4759 544.207 50.9863C544.03 50.4863 543.941 49.9082 543.941 49.2519C543.941 48.6061 544.03 48.0227 544.207 47.5019C544.384 46.9707 544.634 46.5175 544.957 46.1425C545.28 45.7571 545.67 45.4655 546.129 45.2675C546.597 45.0592 547.113 44.955 547.675 44.955C548.238 44.955 548.733 45.0436 549.16 45.2207C549.597 45.3873 549.962 45.6269 550.254 45.9394C550.545 46.2519 550.764 46.6269 550.91 47.0644C551.066 47.4915 551.144 47.9655 551.144 48.4863ZM549.207 48.205C549.217 47.8925 549.181 47.6217 549.097 47.3925C549.014 47.1634 548.899 46.9759 548.754 46.83C548.608 46.6738 548.441 46.5592 548.254 46.4863C548.066 46.4134 547.863 46.3769 547.644 46.3769C547.165 46.3769 546.769 46.5384 546.457 46.8613C546.155 47.1738 545.972 47.6217 545.91 48.205L549.207 48.205ZM558.004 53.0644L557.957 52.0175C557.79 52.1946 557.613 52.3613 557.425 52.5175C557.248 52.6634 557.05 52.7936 556.832 52.9082C556.613 53.0123 556.373 53.0957 556.113 53.1582C555.863 53.2207 555.582 53.2519 555.269 53.2519C554.863 53.2519 554.504 53.1894 554.191 53.0644C553.889 52.9394 553.634 52.7727 553.425 52.5644C553.217 52.3457 553.061 52.0852 552.957 51.7832C552.852 51.4811 552.8 51.1477 552.8 50.7832C552.8 50.4082 552.879 50.0644 553.035 49.7519C553.191 49.429 553.431 49.153 553.754 48.9238C554.087 48.6946 554.493 48.5175 554.972 48.3925C555.462 48.2571 556.035 48.1894 556.691 48.1894L557.738 48.1894L557.738 47.7207C557.738 47.5123 557.707 47.33 557.644 47.1738C557.592 47.0071 557.498 46.8665 557.363 46.7519C557.238 46.6373 557.071 46.5488 556.863 46.4863C556.665 46.4238 556.42 46.3925 556.129 46.3925C555.66 46.3925 555.196 46.4446 554.738 46.5488C554.28 46.653 553.837 46.804 553.41 47.0019L553.41 45.4707C553.795 45.3248 554.233 45.205 554.722 45.1113C555.222 45.0071 555.743 44.955 556.285 44.955C556.868 44.955 557.368 45.0123 557.785 45.1269C558.212 45.2311 558.561 45.3977 558.832 45.6269C559.113 45.8457 559.316 46.1269 559.441 46.4707C559.576 46.804 559.644 47.1946 559.644 47.6425L559.644 53.0644L558.004 53.0644ZM557.738 49.5488L556.566 49.5488C556.243 49.5488 555.967 49.58 555.738 49.6425C555.519 49.705 555.337 49.7936 555.191 49.9082C555.056 50.0123 554.957 50.1373 554.894 50.2832C554.832 50.429 554.8 50.58 554.8 50.7363C554.8 51.0592 554.905 51.3092 555.113 51.4863C555.321 51.653 555.603 51.7363 555.957 51.7363C556.228 51.7363 556.504 51.6425 556.785 51.455C557.077 51.2571 557.394 50.9759 557.738 50.6113L557.738 49.5488ZM567.425 53.0644L567.425 47.6582C567.425 47.4602 567.42 47.2884 567.41 47.1425C567.399 46.9863 567.379 46.8613 567.347 46.7675C567.316 46.6634 567.269 46.5905 567.207 46.5488C567.155 46.4967 567.077 46.4707 566.972 46.4707C566.806 46.4707 566.644 46.58 566.488 46.7988C566.332 47.0175 566.155 47.3873 565.957 47.9082L565.957 53.0644L564.332 53.0644L564.332 47.6582C564.332 47.4602 564.327 47.2884 564.316 47.1425C564.306 46.9863 564.285 46.8613 564.254 46.7675C564.222 46.6634 564.175 46.5904 564.113 46.5488C564.051 46.4967 563.967 46.4707 563.863 46.4707C563.728 46.4707 563.577 46.58 563.41 46.7988C563.243 47.0175 563.056 47.3873 562.847 47.9082L562.847 53.0644L561.207 53.0644L561.207 45.1269L562.613 45.1269L562.644 46.2832C562.759 46.0436 562.873 45.8404 562.988 45.6738C563.103 45.5071 563.222 45.3717 563.347 45.2675C563.483 45.1634 563.623 45.0904 563.769 45.0488C563.925 44.9967 564.097 44.9706 564.285 44.9706C564.722 44.9706 565.056 45.0852 565.285 45.3144C565.524 45.5436 565.66 45.8665 565.691 46.2831C565.816 46.0436 565.936 45.8404 566.05 45.6738C566.175 45.5071 566.306 45.3717 566.441 45.2675C566.576 45.1634 566.717 45.0904 566.863 45.0488C567.019 44.9967 567.191 44.9706 567.379 44.9706C567.962 44.9706 568.389 45.1738 568.66 45.58C568.941 45.9758 569.082 46.5696 569.082 47.3613L569.082 53.0644L567.425 53.0644Z" fill="#666666" fill-rule="evenodd" opacity="1" stroke="none"/>
<path d="M614.872 48.0902L644.887 48.1217" fill="#000000" fill-opacity="0" fill-rule="evenodd" opacity="1" stroke="none"/>
<path d="M614.872 48.0902L632.887 48.1091" fill="none" fill-rule="evenodd" opacity="1" stroke="#666666" stroke-linecap="butt" stroke-linejoin="round" stroke-width="2"/>
<path d="M632.884 51.4126L641.964 48.1187L632.891 44.8057L632.884 51.4126Z" fill="#666666" fill-rule="evenodd" opacity="1" stroke="#666666" stroke-linecap="butt" stroke-linejoin="miter" stroke-width="2"/>
<path d="M644.892 27.1061L704.199 27.1061L704.199 69.1219L644.892 69.1219L644.892 27.1061Z" fill="#000000" fill-opacity="0" fill-rule="evenodd" opacity="1" stroke="none"/>
<path d="M663.403 55.794L663.403 53.6534L665.544 53.6534L665.544 55.794L663.403 55.794ZM670.528 55.794L670.528 53.6534L672.653 53.6534L672.653 55.794L670.528 55.794ZM677.622 55.794L677.622 53.6534L679.763 53.6534L679.763 55.794L677.622 55.794ZM684.185 55.794L684.185 53.6534L686.325 53.6534L686.325 55.794L684.185 55.794Z" fill="#666666" fill-rule="evenodd" opacity="1" stroke="none"/>
<path d="M120.199 48.114L149.522 48.2085" fill="#000000" fill-opacity="0" fill-rule="evenodd" opacity="1" stroke="none"/>
<path d="M120.199 48.114L137.522 48.1698" fill="none" fill-rule="evenodd" opacity="1" stroke="#666666" stroke-linecap="butt" stroke-linejoin="round" stroke-width="2"/>
<path d="M137.512 51.4733L146.598 48.1991L137.533 44.8664L137.512 51.4733Z" fill="#666666" fill-rule="evenodd" opacity="1" stroke="#666666" stroke-linecap="butt" stroke-linejoin="miter" stroke-width="2"/>
<path d="M149.533 92.8383L256.651 92.8383L256.651 131.61L149.533 131.61L149.533 92.8383Z" fill="#ffffff" fill-rule="evenodd" opacity="1" stroke="none"/>
<path d="M149.533 92.8383L256.651 92.8383L256.651 131.61L149.533 131.61L149.533 92.8383Z" fill="none" fill-rule="evenodd" opacity="1" stroke="#980000" stroke-linecap="butt" stroke-linejoin="round" stroke-width="1"/>
<path d="M166.502 114.105C166.502 114.667 166.398 115.157 166.189 115.573C165.991 115.98 165.705 116.318 165.33 116.589C164.965 116.849 164.528 117.047 164.017 117.183C163.507 117.318 162.95 117.386 162.346 117.386C161.804 117.386 161.283 117.349 160.783 117.276C160.283 117.214 159.788 117.11 159.299 116.964L159.299 115.073C159.538 115.157 159.788 115.235 160.049 115.308C160.309 115.381 160.57 115.443 160.83 115.495C161.101 115.547 161.366 115.589 161.627 115.62C161.887 115.651 162.137 115.667 162.377 115.667C162.741 115.667 163.049 115.636 163.299 115.573C163.559 115.511 163.767 115.428 163.924 115.323C164.09 115.209 164.21 115.079 164.283 114.933C164.356 114.776 164.392 114.61 164.392 114.433C164.392 114.183 164.319 113.974 164.174 113.808C164.038 113.631 163.851 113.48 163.611 113.355C163.382 113.219 163.116 113.099 162.814 112.995C162.512 112.891 162.205 112.782 161.892 112.667C161.59 112.542 161.288 112.407 160.986 112.261C160.684 112.105 160.413 111.917 160.174 111.698C159.945 111.469 159.757 111.204 159.611 110.901C159.476 110.589 159.408 110.214 159.408 109.776C159.408 109.37 159.481 108.99 159.627 108.636C159.773 108.271 160.002 107.959 160.314 107.698C160.627 107.428 161.028 107.214 161.517 107.058C162.007 106.891 162.596 106.808 163.283 106.808C163.491 106.808 163.705 106.818 163.924 106.839C164.142 106.86 164.361 106.886 164.58 106.917C164.799 106.938 165.007 106.969 165.205 107.011C165.403 107.052 165.585 107.094 165.752 107.136L165.752 108.886C165.585 108.823 165.403 108.766 165.205 108.714C165.007 108.662 164.804 108.62 164.596 108.589C164.387 108.547 164.174 108.516 163.955 108.495C163.747 108.474 163.543 108.464 163.346 108.464C163.012 108.464 162.726 108.49 162.486 108.542C162.257 108.594 162.064 108.672 161.908 108.776C161.762 108.87 161.653 108.99 161.58 109.136C161.517 109.271 161.486 109.422 161.486 109.589C161.486 109.808 161.554 109.995 161.689 110.151C161.835 110.297 162.028 110.433 162.267 110.558C162.507 110.683 162.773 110.797 163.064 110.901C163.366 111.006 163.674 111.12 163.986 111.245C164.309 111.37 164.616 111.511 164.908 111.667C165.21 111.823 165.481 112.016 165.721 112.245C165.96 112.464 166.148 112.724 166.283 113.026C166.429 113.329 166.502 113.688 166.502 114.105ZM174.971 117.12C174.627 117.203 174.278 117.266 173.924 117.308C173.58 117.36 173.252 117.386 172.939 117.386C172.418 117.386 171.965 117.328 171.58 117.214C171.205 117.099 170.892 116.933 170.642 116.714C170.403 116.485 170.221 116.198 170.096 115.855C169.981 115.511 169.924 115.099 169.924 114.62L169.924 110.745L167.799 110.745L167.799 109.261L169.924 109.261L169.924 107.23L171.877 106.714L171.877 109.261L174.971 109.261L174.971 110.745L171.877 110.745L171.877 114.48C171.877 114.927 171.981 115.271 172.189 115.511C172.398 115.74 172.747 115.855 173.236 115.855C173.549 115.855 173.851 115.828 174.142 115.776C174.444 115.724 174.721 115.662 174.971 115.589L174.971 117.12ZM182.33 112.339C182.34 112.047 182.325 111.797 182.283 111.589C182.241 111.381 182.179 111.209 182.096 111.073C182.012 110.938 181.908 110.839 181.783 110.776C181.658 110.714 181.512 110.683 181.346 110.683C181.064 110.683 180.773 110.797 180.471 111.026C180.179 111.256 179.851 111.636 179.486 112.167L179.486 117.198L177.533 117.198L177.533 109.261L179.267 109.261L179.33 110.417C179.465 110.209 179.611 110.026 179.767 109.87C179.934 109.703 180.116 109.563 180.314 109.448C180.523 109.334 180.747 109.245 180.986 109.183C181.236 109.12 181.507 109.089 181.799 109.089C182.194 109.089 182.549 109.157 182.861 109.292C183.174 109.427 183.434 109.631 183.642 109.901C183.851 110.172 184.007 110.516 184.111 110.933C184.215 111.339 184.257 111.808 184.236 112.339L182.33 112.339ZM192.924 112.62C192.924 112.745 192.918 112.912 192.908 113.12C192.908 113.328 192.898 113.526 192.877 113.714L187.658 113.714C187.658 114.058 187.71 114.365 187.814 114.636C187.929 114.896 188.08 115.12 188.267 115.308C188.465 115.485 188.7 115.62 188.971 115.714C189.252 115.808 189.559 115.855 189.892 115.855C190.278 115.855 190.689 115.823 191.127 115.761C191.564 115.698 192.023 115.599 192.502 115.464L192.502 116.98C192.294 117.042 192.07 117.099 191.83 117.151C191.59 117.193 191.346 117.23 191.096 117.261C190.846 117.302 190.59 117.334 190.33 117.355C190.08 117.375 189.835 117.386 189.596 117.386C188.991 117.386 188.45 117.297 187.971 117.12C187.491 116.943 187.085 116.688 186.752 116.354C186.419 116.021 186.163 115.61 185.986 115.12C185.809 114.62 185.721 114.042 185.721 113.386C185.721 112.74 185.809 112.157 185.986 111.636C186.163 111.104 186.413 110.651 186.736 110.276C187.059 109.891 187.45 109.599 187.908 109.401C188.377 109.193 188.892 109.089 189.455 109.089C190.017 109.089 190.512 109.177 190.939 109.354C191.377 109.521 191.741 109.761 192.033 110.073C192.325 110.386 192.544 110.761 192.689 111.198C192.846 111.625 192.924 112.099 192.924 112.62ZM190.986 112.339C190.997 112.026 190.96 111.756 190.877 111.526C190.793 111.297 190.679 111.11 190.533 110.964C190.387 110.808 190.221 110.693 190.033 110.62C189.846 110.547 189.642 110.511 189.424 110.511C188.944 110.511 188.549 110.672 188.236 110.995C187.934 111.308 187.752 111.756 187.689 112.339L190.986 112.339ZM199.783 117.198L199.736 116.151C199.569 116.328 199.392 116.495 199.205 116.651C199.028 116.797 198.83 116.927 198.611 117.042C198.392 117.146 198.153 117.23 197.892 117.292C197.642 117.354 197.361 117.386 197.049 117.386C196.642 117.386 196.283 117.323 195.971 117.198C195.668 117.073 195.413 116.907 195.205 116.698C194.997 116.479 194.84 116.219 194.736 115.917C194.632 115.615 194.58 115.282 194.58 114.917C194.58 114.542 194.658 114.198 194.814 113.886C194.971 113.563 195.21 113.287 195.533 113.058C195.866 112.828 196.273 112.651 196.752 112.526C197.241 112.391 197.814 112.323 198.471 112.323L199.517 112.323L199.517 111.854C199.517 111.646 199.486 111.464 199.424 111.308C199.372 111.141 199.278 111 199.142 110.886C199.017 110.771 198.851 110.683 198.642 110.62C198.445 110.558 198.2 110.526 197.908 110.526C197.439 110.526 196.976 110.578 196.517 110.683C196.059 110.787 195.616 110.938 195.189 111.136L195.189 109.605C195.575 109.459 196.012 109.339 196.502 109.245C197.002 109.141 197.523 109.089 198.064 109.089C198.648 109.089 199.148 109.146 199.564 109.261C199.991 109.365 200.34 109.532 200.611 109.761C200.892 109.98 201.096 110.261 201.221 110.605C201.356 110.938 201.424 111.328 201.424 111.776L201.424 117.198L199.783 117.198ZM199.517 113.683L198.346 113.683C198.023 113.683 197.747 113.714 197.517 113.776C197.299 113.839 197.116 113.927 196.971 114.042C196.835 114.146 196.736 114.271 196.674 114.417C196.611 114.563 196.58 114.714 196.58 114.87C196.58 115.193 196.684 115.443 196.892 115.62C197.101 115.787 197.382 115.87 197.736 115.87C198.007 115.87 198.283 115.776 198.564 115.589C198.856 115.391 199.174 115.11 199.517 114.745L199.517 113.683ZM209.205 117.198L209.205 111.792C209.205 111.594 209.2 111.422 209.189 111.276C209.179 111.12 209.158 110.995 209.127 110.901C209.096 110.797 209.049 110.724 208.986 110.683C208.934 110.631 208.856 110.605 208.752 110.605C208.585 110.605 208.424 110.714 208.267 110.933C208.111 111.151 207.934 111.521 207.736 112.042L207.736 117.198L206.111 117.198L206.111 111.792C206.111 111.594 206.106 111.422 206.096 111.276C206.085 111.12 206.064 110.995 206.033 110.901C206.002 110.797 205.955 110.724 205.892 110.683C205.83 110.631 205.747 110.605 205.642 110.605C205.507 110.605 205.356 110.714 205.189 110.933C205.023 111.151 204.835 111.521 204.627 112.042L204.627 117.198L202.986 117.198L202.986 109.261L204.392 109.261L204.424 110.417C204.538 110.177 204.653 109.974 204.767 109.808C204.882 109.641 205.002 109.506 205.127 109.401C205.262 109.297 205.403 109.224 205.549 109.183C205.705 109.131 205.877 109.105 206.064 109.105C206.502 109.105 206.835 109.219 207.064 109.448C207.304 109.677 207.439 110 207.471 110.417C207.596 110.177 207.715 109.974 207.83 109.808C207.955 109.641 208.085 109.506 208.221 109.401C208.356 109.297 208.497 109.224 208.642 109.183C208.799 109.131 208.971 109.105 209.158 109.105C209.741 109.105 210.168 109.308 210.439 109.714C210.721 110.11 210.861 110.704 210.861 111.495L210.861 117.198L209.205 117.198Z" fill="#666666" fill-rule="evenodd" opacity="1" stroke="none"/>
<path d="M256.651 112.224L286.171 112.224L286.171 128.571L315.675 128.571" fill="#000000" fill-opacity="0" fill-rule="evenodd" opacity="1" stroke="none"/>
<path d="M256.651 112.224L286.171 112.224L286.171 128.571L303.675 128.571" fill="none" fill-rule="evenodd" opacity="1" stroke="#666666" stroke-linecap="butt" stroke-linejoin="round" stroke-width="2"/>
<path d="M303.675 131.874L312.751 128.571L303.675 125.267L303.675 131.874Z" fill="#666666" fill-rule="evenodd" opacity="1" stroke="#666666" stroke-linecap="butt" stroke-linejoin="miter" stroke-width="2"/>
<path d="M149.533 188.838L256.651 188.838L256.651 227.61L149.533 227.61L149.533 188.838Z" fill="#ffffff" fill-rule="evenodd" opacity="1" stroke="none"/>
<path d="M149.533 188.838L256.651 188.838L256.651 227.61L149.533 227.61L149.533 188.838Z" fill="none" fill-rule="evenodd" opacity="1" stroke="#980000" stroke-linecap="butt" stroke-linejoin="round" stroke-width="1"/>
<path d="M166.502 210.105C166.502 210.667 166.398 211.157 166.189 211.573C165.991 211.98 165.705 212.318 165.33 212.589C164.965 212.849 164.528 213.047 164.017 213.183C163.507 213.318 162.95 213.386 162.346 213.386C161.804 213.386 161.283 213.349 160.783 213.276C160.283 213.214 159.788 213.11 159.299 212.964L159.299 211.073C159.538 211.157 159.788 211.235 160.049 211.308C160.309 211.381 160.57 211.443 160.83 211.495C161.101 211.547 161.366 211.589 161.627 211.62C161.887 211.651 162.137 211.667 162.377 211.667C162.741 211.667 163.049 211.636 163.299 211.573C163.559 211.511 163.767 211.428 163.924 211.323C164.09 211.209 164.21 211.079 164.283 210.933C164.356 210.776 164.392 210.61 164.392 210.433C164.392 210.183 164.319 209.974 164.174 209.808C164.038 209.631 163.851 209.48 163.611 209.355C163.382 209.219 163.116 209.099 162.814 208.995C162.512 208.891 162.205 208.782 161.892 208.667C161.59 208.542 161.288 208.407 160.986 208.261C160.684 208.105 160.413 207.917 160.174 207.698C159.945 207.469 159.757 207.204 159.611 206.901C159.476 206.589 159.408 206.214 159.408 205.776C159.408 205.37 159.481 204.99 159.627 204.636C159.773 204.271 160.002 203.959 160.314 203.698C160.627 203.428 161.028 203.214 161.517 203.058C162.007 202.891 162.596 202.808 163.283 202.808C163.491 202.808 163.705 202.818 163.924 202.839C164.142 202.86 164.361 202.886 164.58 202.917C164.799 202.938 165.007 202.969 165.205 203.011C165.403 203.052 165.585 203.094 165.752 203.136L165.752 204.886C165.585 204.823 165.403 204.766 165.205 204.714C165.007 204.662 164.804 204.62 164.596 204.589C164.387 204.547 164.174 204.516 163.955 204.495C163.747 204.474 163.543 204.464 163.346 204.464C163.012 204.464 162.726 204.49 162.486 204.542C162.257 204.594 162.064 204.672 161.908 204.776C161.762 204.87 161.653 204.99 161.58 205.136C161.517 205.271 161.486 205.422 161.486 205.589C161.486 205.808 161.554 205.995 161.689 206.151C161.835 206.297 162.028 206.433 162.267 206.558C162.507 206.683 162.773 206.797 163.064 206.901C163.366 207.006 163.674 207.12 163.986 207.245C164.309 207.37 164.616 207.511 164.908 207.667C165.21 207.823 165.481 208.016 165.721 208.245C165.96 208.464 166.148 208.724 166.283 209.026C166.429 209.329 166.502 209.688 166.502 210.105ZM174.971 213.12C174.627 213.203 174.278 213.266 173.924 213.308C173.58 213.36 173.252 213.386 172.939 213.386C172.418 213.386 171.965 213.328 171.58 213.214C171.205 213.099 170.892 212.933 170.642 212.714C170.403 212.485 170.221 212.198 170.096 211.855C169.981 211.511 169.924 211.099 169.924 210.62L169.924 206.745L167.799 206.745L167.799 205.261L169.924 205.261L169.924 203.23L171.877 202.714L171.877 205.261L174.971 205.261L174.971 206.745L171.877 206.745L171.877 210.48C171.877 210.927 171.981 211.271 172.189 211.511C172.398 211.74 172.747 211.855 173.236 211.855C173.549 211.855 173.851 211.828 174.142 211.776C174.444 211.724 174.721 211.662 174.971 211.589L174.971 213.12ZM182.33 208.339C182.34 208.047 182.325 207.797 182.283 207.589C182.241 207.381 182.179 207.209 182.096 207.073C182.012 206.938 181.908 206.839 181.783 206.776C181.658 206.714 181.512 206.683 181.346 206.683C181.064 206.683 180.773 206.797 180.471 207.026C180.179 207.256 179.851 207.636 179.486 208.167L179.486 213.198L177.533 213.198L177.533 205.261L179.267 205.261L179.33 206.417C179.465 206.209 179.611 206.026 179.767 205.87C179.934 205.704 180.116 205.563 180.314 205.448C180.523 205.334 180.747 205.245 180.986 205.183C181.236 205.12 181.507 205.089 181.799 205.089C182.194 205.089 182.549 205.157 182.861 205.292C183.174 205.428 183.434 205.631 183.642 205.902C183.851 206.172 184.007 206.516 184.111 206.933C184.215 207.339 184.257 207.808 184.236 208.339L182.33 208.339ZM192.924 208.62C192.924 208.745 192.918 208.912 192.908 209.12C192.908 209.328 192.898 209.526 192.877 209.714L187.658 209.714C187.658 210.058 187.71 210.365 187.814 210.636C187.929 210.896 188.08 211.12 188.267 211.308C188.465 211.485 188.7 211.62 188.971 211.714C189.252 211.808 189.559 211.855 189.892 211.855C190.278 211.855 190.689 211.823 191.127 211.761C191.564 211.698 192.023 211.599 192.502 211.464L192.502 212.98C192.294 213.042 192.07 213.099 191.83 213.151C191.59 213.193 191.346 213.23 191.096 213.261C190.846 213.302 190.59 213.334 190.33 213.355C190.08 213.375 189.835 213.386 189.596 213.386C188.991 213.386 188.45 213.297 187.971 213.12C187.491 212.943 187.085 212.688 186.752 212.354C186.419 212.021 186.163 211.61 185.986 211.12C185.809 210.62 185.721 210.042 185.721 209.386C185.721 208.74 185.809 208.157 185.986 207.636C186.163 207.104 186.413 206.651 186.736 206.276C187.059 205.891 187.45 205.599 187.908 205.401C188.377 205.193 188.892 205.089 189.455 205.089C190.017 205.089 190.512 205.177 190.939 205.354C191.377 205.521 191.741 205.761 192.033 206.073C192.325 206.386 192.544 206.761 192.689 207.198C192.846 207.625 192.924 208.099 192.924 208.62ZM190.986 208.339C190.997 208.026 190.96 207.756 190.877 207.526C190.793 207.297 190.679 207.11 190.533 206.964C190.387 206.808 190.221 206.693 190.033 206.62C189.846 206.547 189.642 206.511 189.424 206.511C188.944 206.511 188.549 206.672 188.236 206.995C187.934 207.308 187.752 207.756 187.689 208.339L190.986 208.339ZM199.783 213.198L199.736 212.151C199.569 212.328 199.392 212.495 199.205 212.651C199.028 212.797 198.83 212.927 198.611 213.042C198.392 213.146 198.153 213.23 197.892 213.292C197.642 213.354 197.361 213.386 197.049 213.386C196.642 213.386 196.283 213.323 195.971 213.198C195.668 213.073 195.413 212.907 195.205 212.698C194.997 212.479 194.84 212.219 194.736 211.917C194.632 211.615 194.58 211.282 194.58 210.917C194.58 210.542 194.658 210.198 194.814 209.886C194.971 209.563 195.21 209.287 195.533 209.058C195.866 208.828 196.273 208.651 196.752 208.526C197.241 208.391 197.814 208.323 198.471 208.323L199.517 208.323L199.517 207.854C199.517 207.646 199.486 207.464 199.424 207.308C199.372 207.141 199.278 207 199.142 206.886C199.017 206.771 198.851 206.683 198.642 206.62C198.445 206.558 198.2 206.526 197.908 206.526C197.439 206.526 196.976 206.578 196.517 206.683C196.059 206.787 195.616 206.938 195.189 207.136L195.189 205.605C195.575 205.459 196.012 205.339 196.502 205.245C197.002 205.141 197.523 205.089 198.064 205.089C198.648 205.089 199.148 205.146 199.564 205.261C199.991 205.365 200.34 205.532 200.611 205.761C200.892 205.98 201.096 206.261 201.221 206.605C201.356 206.938 201.424 207.328 201.424 207.776L201.424 213.198L199.783 213.198ZM199.517 209.683L198.346 209.683C198.023 209.683 197.747 209.714 197.517 209.776C197.299 209.839 197.116 209.927 196.971 210.042C196.835 210.146 196.736 210.271 196.674 210.417C196.611 210.563 196.58 210.714 196.58 210.87C196.58 211.193 196.684 211.443 196.892 211.62C197.101 211.787 197.382 211.87 197.736 211.87C198.007 211.87 198.283 211.776 198.564 211.589C198.856 211.391 199.174 211.11 199.517 210.745L199.517 209.683ZM209.205 213.198L209.205 207.792C209.205 207.594 209.2 207.422 209.189 207.276C209.179 207.12 209.158 206.995 209.127 206.901C209.096 206.797 209.049 206.724 208.986 206.683C208.934 206.631 208.856 206.605 208.752 206.605C208.585 206.605 208.424 206.714 208.267 206.933C208.111 207.151 207.934 207.521 207.736 208.042L207.736 213.198L206.111 213.198L206.111 207.792C206.111 207.594 206.106 207.422 206.096 207.276C206.085 207.12 206.064 206.995 206.033 206.901C206.002 206.797 205.955 206.724 205.892 206.683C205.83 206.631 205.747 206.605 205.642 206.605C205.507 206.605 205.356 206.714 205.189 206.933C205.023 207.151 204.835 207.521 204.627 208.042L204.627 213.198L202.986 213.198L202.986 205.261L204.392 205.261L204.424 206.417C204.538 206.178 204.653 205.974 204.767 205.808C204.882 205.641 205.002 205.506 205.127 205.401C205.262 205.297 205.403 205.224 205.549 205.183C205.705 205.131 205.877 205.105 206.064 205.105C206.502 205.105 206.835 205.219 207.064 205.448C207.304 205.678 207.439 206 207.471 206.417C207.596 206.178 207.715 205.974 207.83 205.808C207.955 205.641 208.085 205.506 208.221 205.401C208.356 205.297 208.497 205.224 208.642 205.183C208.799 205.131 208.971 205.105 209.158 205.105C209.741 205.105 210.168 205.308 210.439 205.714C210.721 206.11 210.861 206.704 210.861 207.495L210.861 213.198L209.205 213.198Z" fill="#666666" fill-rule="evenodd" opacity="1" stroke="none"/>
<path d="M256.651 208.224L286.171 208.224L286.171 128.571L315.675 128.571" fill="#000000" fill-opacity="0" fill-rule="evenodd" opacity="1" stroke="none"/>
<path d="M256.651 208.224L286.171 208.224L286.171 128.571L303.675 128.571" fill="none" fill-rule="evenodd" opacity="1" stroke="#666666" stroke-linecap="butt" stroke-linejoin="round" stroke-width="2"/>
<path d="M303.675 131.874L312.751 128.571L303.675 125.267L303.675 131.874Z" fill="#666666" fill-rule="evenodd" opacity="1" stroke="#666666" stroke-linecap="butt" stroke-linejoin="miter" stroke-width="2"/>
<path d="M172.892 139.106L232.199 139.106L232.199 181.122L172.892 181.122L172.892 139.106Z" fill="#000000" fill-opacity="0" fill-rule="evenodd" opacity="1" stroke="none"/>
<path d="M191.403 167.794L191.403 165.653L193.544 165.653L193.544 167.794L191.403 167.794ZM198.528 167.794L198.528 165.653L200.653 165.653L200.653 167.794L198.528 167.794ZM205.622 167.794L205.622 165.653L207.763 165.653L207.763 167.794L205.622 167.794ZM212.185 167.794L212.185 165.653L214.325 165.653L214.325 167.794L212.185 167.794Z" fill="#666666" fill-rule="evenodd" opacity="1" stroke="none"/>
<path d="M507.754 84.7044L614.872 84.7044L614.872 123.476L507.754 123.476L507.754 84.7044Z" fill="#ffffff" fill-rule="evenodd" opacity="1" stroke="none"/>
<path d="M507.754 84.7044L614.872 84.7044L614.872 123.476L507.754 123.476L507.754 84.7044Z" fill="none" fill-rule="evenodd" opacity="1" stroke="#980000" stroke-linecap="butt" stroke-linejoin="round" stroke-width="1"/>
<path d="M524.722 105.971C524.722 106.533 524.618 107.023 524.41 107.439C524.212 107.846 523.925 108.184 523.55 108.455C523.186 108.715 522.748 108.913 522.238 109.049C521.728 109.184 521.17 109.252 520.566 109.252C520.024 109.252 519.504 109.215 519.004 109.143C518.504 109.08 518.009 108.976 517.519 108.83L517.519 106.939C517.759 107.023 518.009 107.101 518.269 107.174C518.53 107.247 518.79 107.309 519.05 107.361C519.321 107.413 519.587 107.455 519.847 107.486C520.108 107.518 520.358 107.533 520.597 107.533C520.962 107.533 521.269 107.502 521.519 107.439C521.78 107.377 521.988 107.294 522.144 107.189C522.311 107.075 522.431 106.945 522.504 106.799C522.576 106.643 522.613 106.476 522.613 106.299C522.613 106.049 522.54 105.841 522.394 105.674C522.259 105.497 522.071 105.346 521.832 105.221C521.603 105.085 521.337 104.966 521.035 104.861C520.733 104.757 520.425 104.648 520.113 104.533C519.811 104.408 519.509 104.273 519.207 104.127C518.905 103.971 518.634 103.783 518.394 103.564C518.165 103.335 517.978 103.07 517.832 102.768C517.696 102.455 517.629 102.08 517.629 101.643C517.629 101.236 517.701 100.856 517.847 100.502C517.993 100.137 518.222 99.8249 518.535 99.5645C518.847 99.2937 519.248 99.0801 519.738 98.9239C520.228 98.7572 520.816 98.6739 521.504 98.6739C521.712 98.6739 521.925 98.6843 522.144 98.7051C522.363 98.7259 522.582 98.752 522.8 98.7832C523.019 98.8041 523.228 98.8353 523.425 98.877C523.623 98.9187 523.806 98.9603 523.972 99.002L523.972 100.752C523.806 100.69 523.623 100.632 523.425 100.58C523.228 100.528 523.024 100.486 522.816 100.455C522.608 100.413 522.394 100.382 522.175 100.361C521.967 100.341 521.764 100.33 521.566 100.33C521.233 100.33 520.946 100.356 520.707 100.408C520.478 100.46 520.285 100.539 520.129 100.643C519.983 100.736 519.873 100.856 519.8 101.002C519.738 101.137 519.707 101.289 519.707 101.455C519.707 101.674 519.774 101.861 519.91 102.018C520.056 102.164 520.248 102.299 520.488 102.424C520.728 102.549 520.993 102.664 521.285 102.768C521.587 102.872 521.894 102.986 522.207 103.111C522.53 103.236 522.837 103.377 523.129 103.533C523.431 103.69 523.702 103.882 523.941 104.111C524.181 104.33 524.368 104.591 524.504 104.893C524.649 105.195 524.722 105.554 524.722 105.971L524.722 105.971ZM533.191 108.986C532.847 109.07 532.498 109.132 532.144 109.174C531.8 109.226 531.472 109.252 531.16 109.252C530.639 109.252 530.186 109.195 529.8 109.08C529.425 108.965 529.113 108.799 528.863 108.58C528.623 108.351 528.441 108.064 528.316 107.721C528.201 107.377 528.144 106.965 528.144 106.486L528.144 102.611L526.019 102.611L526.019 101.127L528.144 101.127L528.144 99.0956L530.097 98.58L530.097 101.127L533.191 101.127L533.191 102.611L530.097 102.611L530.097 106.346C530.097 106.794 530.201 107.137 530.41 107.377C530.618 107.606 530.967 107.721 531.457 107.721C531.769 107.721 532.071 107.695 532.363 107.643C532.665 107.59 532.941 107.528 533.191 107.455L533.191 108.986ZM540.55 104.205C540.561 103.913 540.545 103.663 540.504 103.455C540.462 103.247 540.399 103.075 540.316 102.939C540.233 102.804 540.129 102.705 540.004 102.643C539.879 102.58 539.733 102.549 539.566 102.549C539.285 102.549 538.993 102.663 538.691 102.893C538.399 103.122 538.071 103.502 537.707 104.033L537.707 109.064L535.754 109.064L535.754 101.127L537.488 101.127L537.55 102.283C537.686 102.075 537.832 101.893 537.988 101.736C538.155 101.57 538.337 101.429 538.535 101.314C538.743 101.2 538.967 101.111 539.207 101.049C539.457 100.986 539.727 100.955 540.019 100.955C540.415 100.955 540.769 101.023 541.082 101.158C541.394 101.294 541.655 101.497 541.863 101.768C542.071 102.038 542.227 102.382 542.332 102.799C542.436 103.205 542.477 103.674 542.457 104.205L540.55 104.205ZM551.144 104.486C551.144 104.611 551.139 104.778 551.129 104.986C551.129 105.195 551.118 105.393 551.097 105.58L545.879 105.58C545.879 105.924 545.931 106.231 546.035 106.502C546.149 106.762 546.3 106.986 546.488 107.174C546.686 107.351 546.92 107.486 547.191 107.58C547.472 107.674 547.78 107.721 548.113 107.721C548.498 107.721 548.91 107.689 549.347 107.627C549.785 107.564 550.243 107.466 550.722 107.33L550.722 108.846C550.514 108.908 550.29 108.965 550.05 109.018C549.811 109.059 549.566 109.096 549.316 109.127C549.066 109.169 548.811 109.2 548.55 109.221C548.3 109.241 548.056 109.252 547.816 109.252C547.212 109.252 546.67 109.163 546.191 108.986C545.712 108.809 545.306 108.554 544.972 108.221C544.639 107.887 544.384 107.476 544.207 106.986C544.03 106.486 543.941 105.908 543.941 105.252C543.941 104.606 544.03 104.023 544.207 103.502C544.384 102.971 544.634 102.517 544.957 102.142C545.28 101.757 545.67 101.465 546.129 101.267C546.597 101.059 547.113 100.955 547.675 100.955C548.238 100.955 548.733 101.044 549.16 101.221C549.597 101.387 549.962 101.627 550.254 101.939C550.545 102.252 550.764 102.627 550.91 103.064C551.066 103.491 551.144 103.965 551.144 104.486ZM549.207 104.205C549.217 103.893 549.181 103.622 549.097 103.393C549.014 103.163 548.899 102.976 548.754 102.83C548.608 102.674 548.441 102.559 548.254 102.486C548.066 102.413 547.863 102.377 547.644 102.377C547.165 102.377 546.769 102.538 546.457 102.861C546.155 103.174 545.972 103.622 545.91 104.205L549.207 104.205ZM558.004 109.064L557.957 108.018C557.79 108.195 557.613 108.361 557.425 108.518C557.248 108.663 557.05 108.794 556.832 108.908C556.613 109.012 556.373 109.096 556.113 109.158C555.863 109.221 555.582 109.252 555.269 109.252C554.863 109.252 554.504 109.189 554.191 109.064C553.889 108.939 553.634 108.773 553.425 108.564C553.217 108.346 553.061 108.085 552.957 107.783C552.852 107.481 552.8 107.148 552.8 106.783C552.8 106.408 552.879 106.064 553.035 105.752C553.191 105.429 553.431 105.153 553.754 104.924C554.087 104.695 554.493 104.517 554.972 104.392C555.462 104.257 556.035 104.189 556.691 104.189L557.738 104.189L557.738 103.721C557.738 103.512 557.707 103.33 557.644 103.174C557.592 103.007 557.498 102.866 557.363 102.752C557.238 102.637 557.071 102.549 556.863 102.486C556.665 102.424 556.42 102.393 556.129 102.393C555.66 102.393 555.196 102.445 554.738 102.549C554.28 102.653 553.837 102.804 553.41 103.002L553.41 101.471C553.795 101.325 554.233 101.205 554.722 101.111C555.222 101.007 555.743 100.955 556.285 100.955C556.868 100.955 557.368 101.012 557.785 101.127C558.212 101.231 558.561 101.398 558.832 101.627C559.113 101.846 559.316 102.127 559.441 102.471C559.576 102.804 559.644 103.195 559.644 103.643L559.644 109.064L558.004 109.064ZM557.738 105.549L556.566 105.549C556.243 105.549 555.967 105.58 555.738 105.642C555.519 105.705 555.337 105.793 555.191 105.908C555.056 106.012 554.957 106.137 554.894 106.283C554.832 106.429 554.8 106.58 554.8 106.736C554.8 107.059 554.905 107.309 555.113 107.486C555.321 107.653 555.603 107.736 555.957 107.736C556.228 107.736 556.504 107.642 556.785 107.455C557.077 107.257 557.394 106.976 557.738 106.611L557.738 105.549ZM567.425 109.064L567.425 103.658C567.425 103.46 567.42 103.288 567.41 103.143C567.399 102.986 567.379 102.861 567.347 102.768C567.316 102.663 567.269 102.59 567.207 102.549C567.155 102.497 567.077 102.471 566.972 102.471C566.806 102.471 566.644 102.58 566.488 102.799C566.332 103.018 566.155 103.387 565.957 103.908L565.957 109.064L564.332 109.064L564.332 103.658C564.332 103.46 564.327 103.288 564.316 103.143C564.306 102.986 564.285 102.861 564.254 102.768C564.222 102.663 564.175 102.59 564.113 102.549C564.051 102.497 563.967 102.471 563.863 102.471C563.728 102.471 563.577 102.58 563.41 102.799C563.243 103.018 563.056 103.387 562.847 103.908L562.847 109.064L561.207 109.064L561.207 101.127L562.613 101.127L562.644 102.283C562.759 102.044 562.873 101.841 562.988 101.674C563.103 101.507 563.222 101.372 563.347 101.268C563.483 101.163 563.623 101.091 563.769 101.049C563.925 100.997 564.097 100.971 564.285 100.971C564.722 100.971 565.056 101.085 565.285 101.314C565.524 101.544 565.66 101.867 565.691 102.283C565.816 102.044 565.936 101.841 566.05 101.674C566.175 101.507 566.306 101.372 566.441 101.268C566.576 101.163 566.717 101.091 566.863 101.049C567.019 100.997 567.191 100.971 567.379 100.971C567.962 100.971 568.389 101.174 568.66 101.58C568.941 101.976 569.082 102.57 569.082 103.361L569.082 109.065L567.425 109.064Z" fill="#666666" fill-rule="evenodd" opacity="1" stroke="none"/>
<path d="M614.872 104.09L644.887 104.122" fill="#000000" fill-opacity="0" fill-rule="evenodd" opacity="1" stroke="none"/>
<path d="M614.872 104.09L632.887 104.109" fill="none" fill-rule="evenodd" opacity="1" stroke="#666666" stroke-linecap="butt" stroke-linejoin="round" stroke-width="2"/>
<path d="M632.884 107.413L641.964 104.119L632.891 100.806L632.884 107.413Z" fill="#666666" fill-rule="evenodd" opacity="1" stroke="#666666" stroke-linecap="butt" stroke-linejoin="miter" stroke-width="2"/>
<path d="M644.892 83.1061L704.199 83.1061L704.199 125.122L644.892 125.122L644.892 83.1061Z" fill="#000000" fill-opacity="0" fill-rule="evenodd" opacity="1" stroke="none"/>
<path d="M663.403 111.794L663.403 109.653L665.544 109.653L665.544 111.794L663.403 111.794ZM670.528 111.794L670.528 109.653L672.653 109.653L672.653 111.794L670.528 111.794ZM677.622 111.794L677.622 109.653L679.763 109.653L679.763 111.794L677.622 111.794ZM684.185 111.794L684.185 109.653L686.325 109.653L686.325 111.794L684.185 111.794Z" fill="#666666" fill-rule="evenodd" opacity="1" stroke="none"/>
<path d="M507.754 188.815L614.872 188.815L614.872 227.586L507.754 227.586L507.754 188.815Z" fill="#ffffff" fill-rule="evenodd" opacity="1" stroke="none"/>
<path d="M507.754 188.815L614.872 188.815L614.872 227.586L507.754 227.586L507.754 188.815Z" fill="none" fill-rule="evenodd" opacity="1" stroke="#980000" stroke-linecap="butt" stroke-linejoin="round" stroke-width="1"/>
<path d="M524.722 210.081C524.722 210.643 524.618 211.133 524.41 211.55C524.212 211.956 523.925 212.294 523.55 212.565C523.186 212.826 522.748 213.024 522.238 213.159C521.728 213.294 521.17 213.362 520.566 213.362C520.024 213.362 519.504 213.326 519.004 213.253C518.504 213.19 518.009 213.086 517.519 212.94L517.519 211.05C517.759 211.133 518.009 211.211 518.269 211.284C518.53 211.357 518.79 211.419 519.05 211.472C519.321 211.524 519.587 211.565 519.847 211.597C520.108 211.628 520.358 211.643 520.597 211.643C520.962 211.643 521.269 211.612 521.519 211.55C521.78 211.487 521.988 211.404 522.144 211.3C522.311 211.185 522.431 211.055 522.504 210.909C522.576 210.753 522.613 210.586 522.613 210.409C522.613 210.159 522.54 209.951 522.394 209.784C522.259 209.607 522.071 209.456 521.832 209.331C521.603 209.196 521.337 209.076 521.035 208.972C520.733 208.867 520.425 208.758 520.113 208.643C519.811 208.518 519.509 208.383 519.207 208.237C518.905 208.081 518.634 207.893 518.394 207.675C518.165 207.446 517.978 207.18 517.832 206.878C517.696 206.565 517.629 206.19 517.629 205.753C517.629 205.347 517.701 204.966 517.847 204.612C517.993 204.248 518.222 203.935 518.535 203.675C518.847 203.404 519.248 203.19 519.738 203.034C520.228 202.867 520.816 202.784 521.504 202.784C521.712 202.784 521.925 202.795 522.144 202.815C522.363 202.836 522.582 202.862 522.8 202.893C523.019 202.914 523.228 202.945 523.425 202.987C523.623 203.029 523.806 203.07 523.972 203.112L523.972 204.862C523.806 204.8 523.623 204.742 523.425 204.69C523.228 204.638 523.024 204.597 522.816 204.565C522.608 204.524 522.394 204.492 522.175 204.472C521.967 204.451 521.764 204.44 521.566 204.44C521.233 204.44 520.946 204.466 520.707 204.518C520.478 204.571 520.285 204.649 520.129 204.753C519.983 204.847 519.873 204.966 519.8 205.112C519.738 205.248 519.707 205.399 519.707 205.565C519.707 205.784 519.774 205.972 519.91 206.128C520.056 206.274 520.248 206.409 520.488 206.534C520.728 206.659 520.993 206.774 521.285 206.878C521.587 206.982 521.894 207.097 522.207 207.222C522.53 207.347 522.837 207.487 523.129 207.643C523.431 207.8 523.702 207.992 523.941 208.222C524.181 208.44 524.368 208.701 524.504 209.003C524.649 209.305 524.722 209.664 524.722 210.081ZM533.191 213.097C532.847 213.18 532.498 213.242 532.144 213.284C531.8 213.336 531.472 213.362 531.16 213.362C530.639 213.362 530.186 213.305 529.8 213.19C529.425 213.076 529.113 212.909 528.863 212.69C528.623 212.461 528.441 212.175 528.316 211.831C528.201 211.487 528.144 211.076 528.144 210.597L528.144 206.722L526.019 206.722L526.019 205.237L528.144 205.237L528.144 203.206L530.097 202.69L530.097 205.237L533.191 205.237L533.191 206.722L530.097 206.722L530.097 210.456C530.097 210.904 530.201 211.248 530.41 211.487C530.618 211.716 530.967 211.831 531.457 211.831C531.769 211.831 532.071 211.805 532.363 211.753C532.665 211.701 532.941 211.638 533.191 211.565L533.191 213.097ZM540.55 208.315C540.561 208.024 540.545 207.774 540.504 207.565C540.462 207.357 540.399 207.185 540.316 207.05C540.233 206.914 540.129 206.815 540.004 206.753C539.879 206.69 539.733 206.659 539.566 206.659C539.285 206.659 538.993 206.774 538.691 207.003C538.399 207.232 538.071 207.612 537.707 208.143L537.707 213.175L535.754 213.175L535.754 205.237L537.488 205.237L537.55 206.393C537.686 206.185 537.832 206.003 537.988 205.847C538.155 205.68 538.337 205.539 538.535 205.425C538.743 205.31 538.967 205.222 539.207 205.159C539.457 205.097 539.727 205.065 540.019 205.065C540.415 205.065 540.769 205.133 541.082 205.269C541.394 205.404 541.655 205.607 541.863 205.878C542.071 206.149 542.227 206.492 542.332 206.909C542.436 207.315 542.477 207.784 542.457 208.315L540.55 208.315ZM551.144 208.597C551.144 208.722 551.139 208.888 551.129 209.097C551.129 209.305 551.118 209.503 551.097 209.69L545.879 209.69C545.879 210.034 545.931 210.341 546.035 210.612C546.149 210.873 546.3 211.097 546.488 211.284C546.686 211.461 546.92 211.597 547.191 211.69C547.472 211.784 547.78 211.831 548.113 211.831C548.498 211.831 548.91 211.8 549.347 211.737C549.785 211.675 550.243 211.576 550.722 211.44L550.722 212.956C550.514 213.018 550.29 213.076 550.05 213.128C549.811 213.169 549.566 213.206 549.316 213.237C549.066 213.279 548.811 213.31 548.55 213.331C548.3 213.352 548.056 213.362 547.816 213.362C547.212 213.362 546.67 213.274 546.191 213.096C545.712 212.919 545.306 212.664 544.972 212.331C544.639 211.998 544.384 211.586 544.207 211.096C544.03 210.596 543.941 210.018 543.941 209.362C543.941 208.716 544.03 208.133 544.207 207.612C544.384 207.081 544.634 206.628 544.957 206.253C545.28 205.867 545.67 205.576 546.129 205.378C546.597 205.169 547.113 205.065 547.675 205.065C548.238 205.065 548.733 205.154 549.16 205.331C549.597 205.498 549.962 205.737 550.254 206.05C550.545 206.362 550.764 206.737 550.91 207.175C551.066 207.602 551.144 208.076 551.144 208.597ZM549.207 208.315C549.217 208.003 549.181 207.732 549.097 207.503C549.014 207.274 548.899 207.086 548.754 206.94C548.608 206.784 548.441 206.669 548.254 206.597C548.066 206.524 547.863 206.487 547.644 206.487C547.165 206.487 546.769 206.649 546.457 206.972C546.155 207.284 545.972 207.732 545.91 208.315L549.207 208.315ZM558.004 213.175L557.957 212.128C557.79 212.305 557.613 212.472 557.425 212.628C557.248 212.774 557.05 212.904 556.832 213.018C556.613 213.123 556.373 213.206 556.113 213.268C555.863 213.331 555.582 213.362 555.269 213.362C554.863 213.362 554.504 213.3 554.191 213.175C553.889 213.05 553.634 212.883 553.425 212.675C553.217 212.456 553.061 212.195 552.957 211.893C552.852 211.591 552.8 211.258 552.8 210.893C552.8 210.518 552.879 210.175 553.035 209.862C553.191 209.539 553.431 209.263 553.754 209.034C554.087 208.805 554.493 208.628 554.972 208.503C555.462 208.367 556.035 208.3 556.691 208.3L557.738 208.3L557.738 207.831C557.738 207.623 557.707 207.44 557.644 207.284C557.592 207.117 557.498 206.977 557.363 206.862C557.238 206.748 557.071 206.659 556.863 206.596C556.665 206.534 556.42 206.503 556.129 206.503C555.66 206.503 555.196 206.555 554.738 206.659C554.28 206.763 553.837 206.914 553.41 207.112L553.41 205.581C553.795 205.435 554.233 205.315 554.722 205.222C555.222 205.117 555.743 205.065 556.285 205.065C556.868 205.065 557.368 205.123 557.785 205.237C558.212 205.341 558.561 205.508 558.832 205.737C559.113 205.956 559.316 206.237 559.441 206.581C559.576 206.914 559.644 207.305 559.644 207.753L559.644 213.175L558.004 213.175ZM557.738 209.659L556.566 209.659C556.243 209.659 555.967 209.69 555.738 209.753C555.519 209.815 555.337 209.904 555.191 210.018C555.056 210.123 554.957 210.248 554.894 210.393C554.832 210.539 554.8 210.69 554.8 210.846C554.8 211.169 554.905 211.419 555.113 211.596C555.321 211.763 555.603 211.846 555.957 211.846C556.228 211.846 556.504 211.753 556.785 211.565C557.077 211.367 557.394 211.086 557.738 210.721L557.738 209.659ZM567.425 213.175L567.425 207.768C567.425 207.57 567.42 207.399 567.41 207.253C567.399 207.097 567.379 206.972 567.347 206.878C567.316 206.774 567.269 206.701 567.207 206.659C567.155 206.607 567.077 206.581 566.972 206.581C566.806 206.581 566.644 206.69 566.488 206.909C566.332 207.128 566.155 207.498 565.957 208.018L565.957 213.175L564.332 213.175L564.332 207.768C564.332 207.571 564.327 207.399 564.316 207.253C564.306 207.097 564.285 206.972 564.254 206.878C564.222 206.774 564.175 206.701 564.113 206.659C564.051 206.607 563.967 206.581 563.863 206.581C563.728 206.581 563.577 206.69 563.41 206.909C563.243 207.128 563.056 207.498 562.847 208.018L562.847 213.175L561.207 213.175L561.207 205.237L562.613 205.237L562.644 206.393C562.759 206.154 562.873 205.951 562.988 205.784C563.103 205.617 563.222 205.482 563.347 205.378C563.483 205.274 563.623 205.201 563.769 205.159C563.925 205.107 564.097 205.081 564.285 205.081C564.722 205.081 565.056 205.196 565.285 205.425C565.524 205.654 565.66 205.977 565.691 206.393C565.816 206.154 565.936 205.951 566.05 205.784C566.175 205.617 566.306 205.482 566.441 205.378C566.576 205.274 566.717 205.201 566.863 205.159C567.019 205.107 567.191 205.081 567.379 205.081C567.962 205.081 568.389 205.284 568.66 205.69C568.941 206.086 569.082 206.68 569.082 207.472L569.082 213.175L567.425 213.175Z" fill="#666666" fill-rule="evenodd" opacity="1" stroke="none"/>
<path d="M614.872 208.2L644.887 208.232" fill="#000000" fill-opacity="0" fill-rule="evenodd" opacity="1" stroke="none"/>
<path d="M614.872 208.2L632.887 208.219" fill="none" fill-rule="evenodd" opacity="1" stroke="#666666" stroke-linecap="butt" stroke-linejoin="round" stroke-width="2"/>
<path d="M632.884 211.523L641.964 208.229L632.891 204.916L632.884 211.523Z" fill="#666666" fill-rule="evenodd" opacity="1" stroke="#666666" stroke-linecap="butt" stroke-linejoin="miter" stroke-width="2"/>
<path d="M644.892 187.216L704.199 187.216L704.199 229.232L644.892 229.232L644.892 187.216Z" fill="#000000" fill-opacity="0" fill-rule="evenodd" opacity="1" stroke="none"/>
<path d="M663.403 215.904L663.403 213.764L665.544 213.764L665.544 215.904L663.403 215.904ZM670.528 215.904L670.528 213.764L672.653 213.764L672.653 215.904L670.528 215.904ZM677.622 215.904L677.622 213.764L679.763 213.764L679.763 215.904L677.622 215.904ZM684.185 215.904L684.185 213.764L686.325 213.764L686.325 215.904L684.185 215.904Z" fill="#666666" fill-rule="evenodd" opacity="1" stroke="none"/>
<path d="M458.745 128.564L483.249 128.564L483.249 104.091L507.753 104.091" fill="#000000" fill-opacity="0" fill-rule="evenodd" opacity="1" stroke="none"/>
<path d="M458.745 128.564L483.249 128.564L483.249 104.091L495.753 104.091" fill="none" fill-rule="evenodd" opacity="1" stroke="#666666" stroke-linecap="butt" stroke-linejoin="round" stroke-width="2"/>
<path d="M495.753 107.395L504.829 104.091L495.753 100.788L495.753 107.395Z" fill="#666666" fill-rule="evenodd" opacity="1" stroke="#666666" stroke-linecap="butt" stroke-linejoin="miter" stroke-width="2"/>
<path d="M458.745 128.564L483.249 128.564L483.249 208.186L507.753 208.186" fill="#000000" fill-opacity="0" fill-rule="evenodd" opacity="1" stroke="none"/>
<path d="M458.745 128.564L483.249 128.564L483.249 208.186L495.753 208.186" fill="none" fill-rule="evenodd" opacity="1" stroke="#666666" stroke-linecap="butt" stroke-linejoin="round" stroke-width="2"/>
<path d="M495.753 211.489L504.829 208.186L495.753 204.882L495.753 211.489Z" fill="#666666" fill-rule="evenodd" opacity="1" stroke="#666666" stroke-linecap="butt" stroke-linejoin="miter" stroke-width="2"/>
<path d="M531.659 135.138L590.966 135.138L590.966 177.153L531.659 177.153L531.659 135.138Z" fill="#000000" fill-opacity="0" fill-rule="evenodd" opacity="1" stroke="none"/>
<path d="M550.17 163.826L550.17 161.685L552.31 161.685L552.31 163.826L550.17 163.826ZM557.295 163.826L557.295 161.685L559.42 161.685L559.42 163.826L557.295 163.826ZM564.389 163.826L564.389 161.685L566.529 161.685L566.529 163.826L564.389 163.826ZM570.951 163.826L570.951 161.685L573.092 161.685L573.092 163.826L570.951 163.826Z" fill="#666666" fill-rule="evenodd" opacity="1" stroke="none"/>
<path d="M60.8924 27.1061L120.199 27.1061L120.199 69.1219L60.8924 69.1219L60.8924 27.1061Z" fill="#000000" fill-opacity="0" fill-rule="evenodd" opacity="1" stroke="none"/>
<path d="M79.4034 55.794L79.4034 53.6534L81.544 53.6534L81.544 55.794L79.4034 55.794ZM86.5284 55.794L86.5284 53.6534L88.6534 53.6534L88.6534 55.794L86.5284 55.794ZM93.6221 55.794L93.6221 53.6534L95.7628 53.6534L95.7628 55.794L93.6221 55.794ZM100.185 55.794L100.185 53.6534L102.325 53.6534L102.325 55.794L100.185 55.794Z" fill="#666666" fill-rule="evenodd" opacity="1" stroke="none"/>
<path d="M120.199 112.114L149.522 112.208" fill="#000000" fill-opacity="0" fill-rule="evenodd" opacity="1" stroke="none"/>
<path d="M120.199 112.114L137.522 112.17" fill="none" fill-rule="evenodd" opacity="1" stroke="#666666" stroke-linecap="butt" stroke-linejoin="round" stroke-width="2"/>
<path d="M137.512 115.473L146.598 112.199L137.533 108.866L137.512 115.473Z" fill="#666666" fill-rule="evenodd" opacity="1" stroke="#666666" stroke-linecap="butt" stroke-linejoin="miter" stroke-width="2"/>
<path d="M60.8924 91.1061L120.199 91.1061L120.199 133.122L60.8924 133.122L60.8924 91.1061Z" fill="#000000" fill-opacity="0" fill-rule="evenodd" opacity="1" stroke="none"/>
<path d="M79.4034 119.794L79.4034 117.653L81.544 117.653L81.544 119.794L79.4034 119.794ZM86.5284 119.794L86.5284 117.653L88.6534 117.653L88.6534 119.794L86.5284 119.794ZM93.6221 119.794L93.6221 117.653L95.7628 117.653L95.7628 119.794L93.6221 119.794ZM100.185 119.794L100.185 117.653L102.325 117.653L102.325 119.794L100.185 119.794Z" fill="#666666" fill-rule="evenodd" opacity="1" stroke="none"/>
<path d="M120.199 208.114L149.522 208.208" fill="#000000" fill-opacity="0" fill-rule="evenodd" opacity="1" stroke="none"/>
<path d="M120.199 208.114L137.522 208.17" fill="none" fill-rule="evenodd" opacity="1" stroke="#666666" stroke-linecap="butt" stroke-linejoin="round" stroke-width="2"/>
<path d="M137.512 211.473L146.598 208.199L137.533 204.866L137.512 211.473Z" fill="#666666" fill-rule="evenodd" opacity="1" stroke="#666666" stroke-linecap="butt" stroke-linejoin="miter" stroke-width="2"/>
<path d="M60.8924 187.106L120.199 187.106L120.199 229.122L60.8924 229.122L60.8924 187.106Z" fill="#000000" fill-opacity="0" fill-rule="evenodd" opacity="1" stroke="none"/>
<path d="M79.4034 215.794L79.4034 213.653L81.544 213.653L81.544 215.794L79.4034 215.794ZM86.5284 215.794L86.5284 213.653L88.6534 213.653L88.6534 215.794L86.5284 215.794ZM93.6221 215.794L93.6221 213.653L95.7628 213.653L95.7628 215.794L93.6221 215.794ZM100.185 215.794L100.185 213.653L102.325 213.653L102.325 215.794L100.185 215.794Z" fill="#666666" fill-rule="evenodd" opacity="1" stroke="none"/>
</g>
</g>
</svg>
